<mxfile host="app.diagrams.net" modified="2020-10-19T17:17:39.262Z" agent="5.0 (Windows NT 10.0; Win64; x64) AppleWebKit/537.36 (KHTML, like Gecko) Chrome/86.0.4240.75 Safari/537.36" etag="LvpsAcNnh4OvDvDAFY_x" version="13.8.0" type="github">
  <diagram id="QEgc3vgryEYt_oSjoKBz" name="Page-1">
    <mxGraphModel dx="700" dy="784" grid="1" gridSize="10" guides="1" tooltips="1" connect="1" arrows="1" fold="1" page="1" pageScale="1" pageWidth="827" pageHeight="1169" math="0" shadow="0">
      <root>
        <mxCell id="0" />
        <mxCell id="1" parent="0" />
        <mxCell id="kQikg4JIYIptDzOeMj-X-1" value="Profesor" style="swimlane;fontStyle=0;childLayout=stackLayout;horizontal=1;startSize=26;fillColor=none;horizontalStack=0;resizeParent=1;resizeParentMax=0;resizeLast=0;collapsible=1;marginBottom=0;" vertex="1" parent="1">
          <mxGeometry x="359" y="80" width="110" height="162" as="geometry" />
        </mxCell>
        <mxCell id="kQikg4JIYIptDzOeMj-X-2" value="DNI" style="text;strokeColor=none;fillColor=none;align=left;verticalAlign=top;spacingLeft=4;spacingRight=4;overflow=hidden;rotatable=0;points=[[0,0.5],[1,0.5]];portConstraint=eastwest;" vertex="1" parent="kQikg4JIYIptDzOeMj-X-1">
          <mxGeometry y="26" width="110" height="26" as="geometry" />
        </mxCell>
        <mxCell id="kQikg4JIYIptDzOeMj-X-3" value="Nombre" style="text;strokeColor=none;fillColor=none;align=left;verticalAlign=top;spacingLeft=4;spacingRight=4;overflow=hidden;rotatable=0;points=[[0,0.5],[1,0.5]];portConstraint=eastwest;" vertex="1" parent="kQikg4JIYIptDzOeMj-X-1">
          <mxGeometry y="52" width="110" height="26" as="geometry" />
        </mxCell>
        <mxCell id="kQikg4JIYIptDzOeMj-X-4" value="Apellidos&#xa;" style="text;strokeColor=none;fillColor=none;align=left;verticalAlign=top;spacingLeft=4;spacingRight=4;overflow=hidden;rotatable=0;points=[[0,0.5],[1,0.5]];portConstraint=eastwest;" vertex="1" parent="kQikg4JIYIptDzOeMj-X-1">
          <mxGeometry y="78" width="110" height="32" as="geometry" />
        </mxCell>
        <mxCell id="kQikg4JIYIptDzOeMj-X-12" value="Fecha Nacimiento" style="text;strokeColor=none;fillColor=none;align=left;verticalAlign=top;spacingLeft=4;spacingRight=4;overflow=hidden;rotatable=0;points=[[0,0.5],[1,0.5]];portConstraint=eastwest;" vertex="1" parent="kQikg4JIYIptDzOeMj-X-1">
          <mxGeometry y="110" width="110" height="26" as="geometry" />
        </mxCell>
        <mxCell id="kQikg4JIYIptDzOeMj-X-13" value="Email&#xa;" style="text;strokeColor=none;fillColor=none;align=left;verticalAlign=top;spacingLeft=4;spacingRight=4;overflow=hidden;rotatable=0;points=[[0,0.5],[1,0.5]];portConstraint=eastwest;" vertex="1" parent="kQikg4JIYIptDzOeMj-X-1">
          <mxGeometry y="136" width="110" height="26" as="geometry" />
        </mxCell>
        <mxCell id="kQikg4JIYIptDzOeMj-X-19" value="&lt;&lt;Enumerado&gt;&gt;&#xa;Categoría" style="swimlane;fontStyle=0;childLayout=stackLayout;horizontal=1;startSize=26;fillColor=none;horizontalStack=0;resizeParent=1;resizeParentMax=0;resizeLast=0;collapsible=1;marginBottom=0;" vertex="1" parent="1">
          <mxGeometry x="100" y="100" width="170" height="130" as="geometry" />
        </mxCell>
        <mxCell id="kQikg4JIYIptDzOeMj-X-20" value="Catedrático" style="text;strokeColor=none;fillColor=none;align=left;verticalAlign=top;spacingLeft=4;spacingRight=4;overflow=hidden;rotatable=0;points=[[0,0.5],[1,0.5]];portConstraint=eastwest;" vertex="1" parent="kQikg4JIYIptDzOeMj-X-19">
          <mxGeometry y="26" width="170" height="26" as="geometry" />
        </mxCell>
        <mxCell id="kQikg4JIYIptDzOeMj-X-21" value="Titular de Universidad&#xa;" style="text;strokeColor=none;fillColor=none;align=left;verticalAlign=top;spacingLeft=4;spacingRight=4;overflow=hidden;rotatable=0;points=[[0,0.5],[1,0.5]];portConstraint=eastwest;" vertex="1" parent="kQikg4JIYIptDzOeMj-X-19">
          <mxGeometry y="52" width="170" height="26" as="geometry" />
        </mxCell>
        <mxCell id="kQikg4JIYIptDzOeMj-X-22" value="Profesor Contratado Doctor" style="text;strokeColor=none;fillColor=none;align=left;verticalAlign=top;spacingLeft=4;spacingRight=4;overflow=hidden;rotatable=0;points=[[0,0.5],[1,0.5]];portConstraint=eastwest;" vertex="1" parent="kQikg4JIYIptDzOeMj-X-19">
          <mxGeometry y="78" width="170" height="26" as="geometry" />
        </mxCell>
        <mxCell id="kQikg4JIYIptDzOeMj-X-23" value="Profesor Ayudante Doctor" style="text;strokeColor=none;fillColor=none;align=left;verticalAlign=top;spacingLeft=4;spacingRight=4;overflow=hidden;rotatable=0;points=[[0,0.5],[1,0.5]];portConstraint=eastwest;" vertex="1" parent="kQikg4JIYIptDzOeMj-X-19">
          <mxGeometry y="104" width="170" height="26" as="geometry" />
        </mxCell>
        <mxCell id="kQikg4JIYIptDzOeMj-X-27" value="1" style="endArrow=open;html=1;endSize=12;startArrow=diamondThin;startSize=14;startFill=1;edgeStyle=orthogonalEdgeStyle;align=left;verticalAlign=bottom;exitX=1;exitY=0.5;exitDx=0;exitDy=0;entryX=0;entryY=0.5;entryDx=0;entryDy=0;" edge="1" parent="1" source="kQikg4JIYIptDzOeMj-X-22" target="kQikg4JIYIptDzOeMj-X-2">
          <mxGeometry x="-1" y="20" relative="1" as="geometry">
            <mxPoint x="280" y="191" as="sourcePoint" />
            <mxPoint x="330" y="70" as="targetPoint" />
            <mxPoint as="offset" />
          </mxGeometry>
        </mxCell>
        <mxCell id="kQikg4JIYIptDzOeMj-X-28" value="0..*" style="edgeLabel;html=1;align=center;verticalAlign=middle;resizable=0;points=[];" vertex="1" connectable="0" parent="kQikg4JIYIptDzOeMj-X-27">
          <mxGeometry x="0.8453" y="5" relative="1" as="geometry">
            <mxPoint as="offset" />
          </mxGeometry>
        </mxCell>
        <mxCell id="kQikg4JIYIptDzOeMj-X-7" value="Tutoría" style="swimlane;fontStyle=0;childLayout=stackLayout;horizontal=1;startSize=26;fillColor=none;horizontalStack=0;resizeParent=1;resizeParentMax=0;resizeLast=0;collapsible=1;marginBottom=0;" vertex="1" parent="1">
          <mxGeometry x="590" y="113" width="140" height="104" as="geometry" />
        </mxCell>
        <mxCell id="kQikg4JIYIptDzOeMj-X-8" value="Día de la Semana" style="text;strokeColor=none;fillColor=none;align=left;verticalAlign=top;spacingLeft=4;spacingRight=4;overflow=hidden;rotatable=0;points=[[0,0.5],[1,0.5]];portConstraint=eastwest;" vertex="1" parent="kQikg4JIYIptDzOeMj-X-7">
          <mxGeometry y="26" width="140" height="26" as="geometry" />
        </mxCell>
        <mxCell id="kQikg4JIYIptDzOeMj-X-9" value="Hora de comienzo" style="text;strokeColor=none;fillColor=none;align=left;verticalAlign=top;spacingLeft=4;spacingRight=4;overflow=hidden;rotatable=0;points=[[0,0.5],[1,0.5]];portConstraint=eastwest;" vertex="1" parent="kQikg4JIYIptDzOeMj-X-7">
          <mxGeometry y="52" width="140" height="26" as="geometry" />
        </mxCell>
        <mxCell id="kQikg4JIYIptDzOeMj-X-10" value="Hora de fin" style="text;strokeColor=none;fillColor=none;align=left;verticalAlign=top;spacingLeft=4;spacingRight=4;overflow=hidden;rotatable=0;points=[[0,0.5],[1,0.5]];portConstraint=eastwest;" vertex="1" parent="kQikg4JIYIptDzOeMj-X-7">
          <mxGeometry y="78" width="140" height="26" as="geometry" />
        </mxCell>
        <mxCell id="kQikg4JIYIptDzOeMj-X-29" value="" style="endArrow=none;html=1;edgeStyle=orthogonalEdgeStyle;exitX=1.027;exitY=0.192;exitDx=0;exitDy=0;exitPerimeter=0;entryX=-0.014;entryY=0.154;entryDx=0;entryDy=0;entryPerimeter=0;" edge="1" parent="1" source="kQikg4JIYIptDzOeMj-X-2" target="kQikg4JIYIptDzOeMj-X-9">
          <mxGeometry relative="1" as="geometry">
            <mxPoint x="370" y="300" as="sourcePoint" />
            <mxPoint x="530" y="300" as="targetPoint" />
          </mxGeometry>
        </mxCell>
        <mxCell id="kQikg4JIYIptDzOeMj-X-30" value="0..*&lt;br&gt;" style="edgeLabel;resizable=0;html=1;align=left;verticalAlign=bottom;" connectable="0" vertex="1" parent="kQikg4JIYIptDzOeMj-X-29">
          <mxGeometry x="-1" relative="1" as="geometry" />
        </mxCell>
        <mxCell id="kQikg4JIYIptDzOeMj-X-31" value="0..*" style="edgeLabel;resizable=0;html=1;align=right;verticalAlign=bottom;" connectable="0" vertex="1" parent="kQikg4JIYIptDzOeMj-X-29">
          <mxGeometry x="1" relative="1" as="geometry" />
        </mxCell>
        <mxCell id="kQikg4JIYIptDzOeMj-X-32" value="Ofrecida por&lt;br&gt;" style="edgeLabel;html=1;align=center;verticalAlign=middle;resizable=0;points=[];" vertex="1" connectable="0" parent="kQikg4JIYIptDzOeMj-X-29">
          <mxGeometry x="0.2125" y="1" relative="1" as="geometry">
            <mxPoint as="offset" />
          </mxGeometry>
        </mxCell>
      </root>
    </mxGraphModel>
  </diagram>
</mxfile>
